<?xml version="1.0" encoding="utf-8"?>
<!-- Generator: Adobe Illustrator 16.0.0, SVG Export Plug-In . SVG Version: 6.00 Build 0)  -->
<!DOCTYPE svg PUBLIC "-//W3C//DTD SVG 1.1//EN" "http://www.w3.org/Graphics/SVG/1.1/DTD/svg11.dtd">
<svg version="1.1" xmlns="http://www.w3.org/2000/svg" xmlns:xlink="http://www.w3.org/1999/xlink" x="0px" y="0px"
	 width="381.928px" height="89.235px" viewBox="0 0 381.928 89.235" enable-background="new 0 0 381.928 89.235"
	 xml:space="preserve">
<g id="fondo" display="none">
	<rect display="inline" fill-rule="evenodd" clip-rule="evenodd" fill="#1AAAE2" width="381.928" height="89.235"/>
</g>
<g id="azul">
	<g>
		<g>
			<path fill-rule="evenodd" clip-rule="evenodd" fill="#024466" d="M0.001,89.272c6.254,0,12.441,0,18.734,0
				c0-11.892,0-23.738,0-35.67c9.68,0,19.254,0,28.822,0c0-5.756,0-11.42,0-17.137c-4.875,0-24.025,0-28.832,0
				c0-5.965,0-11.788,0-17.779c10.494,0,20.9,0,31.32,0c0-5.688,0-11.278,0-16.901c-16.715,0-33.375,0-50.045,0
				C0.001,30.994,0.001,60.125,0.001,89.272z"/>
			<path fill-rule="evenodd" clip-rule="evenodd" fill="#024466" d="M70.519,0C64.767,0.021,60.165,4.677,60.19,10.438
				c0.025,5.647,4.73,10.283,10.428,10.269c5.594-0.019,10.246-4.727,10.234-10.366C80.841,4.621,76.198-0.024,70.519,0z"/>
			<path fill-rule="evenodd" clip-rule="evenodd" fill="#024466" d="M155.616,46.257c-0.309-3.797-1.312-7.412-3.227-10.723
				c-2.494-4.325-6.049-7.412-10.811-9.072c-3.822-1.333-7.736-1.625-11.74-1.224c-4.98,0.495-9.266,2.435-12.748,6.057
				c-0.914,0.95-1.719,2.005-2.699,3.162c0-2.676,0-5.198,0-7.742c-6.203,0-12.289,0-18.373,0c0,20.841,0,41.642,0,62.433
				c6.143,0,12.205,0,18.375,0c0-0.416,0-0.783,0-1.15c0-10.397-0.008-20.788,0.016-31.188c0.004-1.443,0.078-2.912,0.287-4.332
				c0.945-6.514,5.621-10.91,12.375-10.468c4.221,0.282,7.697,2.036,9.457,6.911c0.781,2.172,0.912,4.428,0.914,6.691
				c0.014,10.796,0.008,21.601,0.008,32.404c0,0.361,0,0.733,0,1.121c6.205,0,12.281,0,18.461,0c0-0.428,0-0.795,0-1.171
				c0-11.757,0.012-23.52-0.014-35.28C155.892,50.541,155.792,48.396,155.616,46.257z"/>
			<path fill-rule="evenodd" clip-rule="evenodd" fill="#024466" d="M260.515,58.938c-0.004,1.588-0.092,3.2-0.354,4.764
				c-0.889,5.291-4.232,9.556-10.076,10.122c-5.086,0.488-9.172-1.726-11.062-6.285c-0.867-2.091-1.145-4.302-1.145-6.545
				c0-11.099,0-33.954,0-34.313c-6.195,0-12.264,0-18.463,0c0,0.355-0.016,26.132,0.002,38.734c0.01,5.073,0.809,9.987,3.262,14.516
				c2.383,4.396,5.848,7.577,10.57,9.347c4.029,1.508,8.186,1.811,12.414,1.297c5.086-0.618,9.389-2.819,12.803-6.678
				c0.678-0.772,1.293-1.602,2.088-2.602c0,2.767,0,5.317,0,7.836c6.215,0,12.297,0,18.393,0c0-20.846,0-41.619,0-62.399
				c-6.162,0-12.271,0-18.418,0C260.528,27.145,260.544,48.569,260.515,58.938z"/>
			<path fill-rule="evenodd" clip-rule="evenodd" fill="#024466" d="M347.466,45.217c-0.434-3.859-1.752-7.431-4.084-10.567
				c-3.184-4.282-7.57-6.753-12.609-8.15c-6.338-1.763-12.783-1.807-19.234-0.854c-5.203,0.764-10.111,2.443-14.578,5.296
				c-0.521,0.328-0.682,0.673-0.678,1.256c0.02,5.255,0.012,10.51,0.012,15.762c0,0.253,0,0.499,0,0.9
				c0.314-0.231,0.5-0.347,0.658-0.489c3.791-3.271,8.055-5.639,12.936-6.835c4.574-1.12,9.184-1.355,13.773-0.207
				c4.109,1.027,6.293,3.738,6.287,7.552c0,0.46-0.049,0.721-0.623,0.8c-4.879,0.671-9.756,1.341-14.625,2.089
				c-4.457,0.693-8.768,1.902-12.723,4.152c-3.943,2.245-6.873,5.361-8.369,9.725c-1.098,3.188-1.299,6.457-0.838,9.778
				c0.688,4.991,3.029,9.052,7.209,11.89c5.654,3.839,11.92,4.184,18.357,2.709c5.018-1.154,9.127-3.77,11.881-8.254
				c0.029-0.05,0.115-0.064,0.43-0.213c0,2.632,0,5.11,0,7.608c5.83,0,11.426,0,17.174,0c0-0.424,0.016-25.265-0.018-37.346
				C347.8,49.615,347.71,47.407,347.466,45.217z M324.747,74.567c-2.338,1.7-5.033,2.251-7.889,2.164
				c-1.758-0.053-3.393-0.447-4.781-1.555c-3.109-2.497-2.676-7.242,0.82-9.434c1.703-1.063,3.6-1.585,5.535-1.93
				c3.562-0.629,7.137-1.172,10.705-1.748c0.225-0.036,0.457-0.027,0.74-0.04C330.315,67.161,328.991,71.486,324.747,74.567z"/>
			<path fill-rule="evenodd" clip-rule="evenodd" fill="#024466" d="M208.577,71.913c-1.82,1.174-3.689,1.875-5.742,2.078
				c-2.387,0.231-4.715,0.1-6.803-1.207c-2.27-1.427-3.039-3.756-3.078-6.21c-0.119-8.043-0.088-16.088-0.107-24.131
				c0-0.171,0.047-0.332,0.086-0.616c5.223,0,10.428,0,15.623,0c0-5.117,0-10.121,0-15.189c-5.256,0-10.447,0-15.756,0
				c0-5.917,0-11.763,0-17.87c-0.459,0.353-28.672,29.567-28.672,29.567c-1.064,1.089-1.068,2.173-0.947,3.507
				c3.754,0,7.461,0,11.295,0c0,0.475,0,0.819,0,1.163c0,8.54-0.016,17.076,0.008,25.612c0.008,3.112,0.264,6.194,1.191,9.191
				c1.395,4.524,4.055,8.043,8.246,10.312c3.314,1.79,6.91,2.418,10.637,2.502c4.564,0.103,9.027-0.367,13.277-2.185
				c0.584-0.249,0.812-0.55,0.809-1.212c-0.031-4.815-0.018-9.639-0.021-14.463C208.622,72.521,208.601,72.274,208.577,71.913z"/>
			<path fill-rule="evenodd" clip-rule="evenodd" fill="#024466" d="M61.235,89.348H79.81c0-29.889,0-32.775,0-62.612H61.247
				L61.235,89.348z"/>
			<path fill-rule="evenodd" clip-rule="evenodd" fill="#024466" d="M363.364,9.208c0,0-0.014,56.02-0.014,80.027
				c6.244,0,12.41,0,18.578,0c0-29.89,0-58.724,0-88.561C381.929,0.675,363.351,9.217,363.364,9.208z"/>
		</g>
	</g>
</g>
<g id="negro" display="none">
	<g display="inline">
		<g>
			<path fill-rule="evenodd" clip-rule="evenodd" d="M0.001,89.272c6.254,0,12.441,0,18.734,0c0-11.892,0-23.738,0-35.67
				c9.68,0,19.254,0,28.822,0c0-5.756,0-11.42,0-17.137c-4.875,0-24.025,0-28.832,0c0-5.965,0-11.788,0-17.779
				c10.494,0,20.9,0,31.32,0c0-5.688,0-11.278,0-16.901c-16.715,0-33.375,0-50.045,0C0.001,30.994,0.001,60.125,0.001,89.272z"/>
			<path fill-rule="evenodd" clip-rule="evenodd" d="M70.519,0C64.767,0.021,60.165,4.677,60.19,10.438
				c0.025,5.647,4.73,10.283,10.428,10.269c5.594-0.019,10.246-4.727,10.234-10.366C80.841,4.621,76.198-0.024,70.519,0z"/>
			<path fill-rule="evenodd" clip-rule="evenodd" d="M155.616,46.257c-0.309-3.797-1.312-7.412-3.227-10.723
				c-2.494-4.325-6.049-7.412-10.811-9.072c-3.822-1.333-7.736-1.625-11.74-1.224c-4.98,0.495-9.266,2.435-12.748,6.057
				c-0.914,0.95-1.719,2.005-2.699,3.162c0-2.676,0-5.198,0-7.742c-6.203,0-12.289,0-18.373,0c0,20.841,0,41.642,0,62.433
				c6.143,0,12.205,0,18.375,0c0-0.416,0-0.783,0-1.15c0-10.397-0.008-20.788,0.016-31.188c0.004-1.443,0.078-2.912,0.287-4.332
				c0.945-6.514,5.621-10.91,12.375-10.468c4.221,0.282,7.697,2.036,9.457,6.911c0.781,2.172,0.912,4.428,0.914,6.691
				c0.014,10.796,0.008,21.601,0.008,32.404c0,0.361,0,0.733,0,1.121c6.205,0,12.281,0,18.461,0c0-0.428,0-0.795,0-1.171
				c0-11.757,0.012-23.52-0.014-35.28C155.892,50.541,155.792,48.396,155.616,46.257z"/>
			<path fill-rule="evenodd" clip-rule="evenodd" d="M260.515,58.938c-0.004,1.588-0.092,3.2-0.354,4.764
				c-0.889,5.291-4.232,9.556-10.076,10.122c-5.086,0.488-9.172-1.726-11.062-6.285c-0.867-2.091-1.145-4.302-1.145-6.545
				c0-11.099,0-33.954,0-34.313c-6.195,0-12.264,0-18.463,0c0,0.355-0.016,26.132,0.002,38.734c0.01,5.073,0.809,9.987,3.262,14.516
				c2.383,4.396,5.848,7.577,10.57,9.347c4.029,1.508,8.186,1.811,12.414,1.297c5.086-0.618,9.389-2.819,12.803-6.678
				c0.678-0.772,1.293-1.602,2.088-2.602c0,2.767,0,5.317,0,7.836c6.215,0,12.297,0,18.393,0c0-20.846,0-41.619,0-62.399
				c-6.162,0-12.271,0-18.418,0C260.528,27.145,260.544,48.569,260.515,58.938z"/>
			<path fill-rule="evenodd" clip-rule="evenodd" d="M347.466,45.217c-0.434-3.859-1.752-7.431-4.084-10.567
				c-3.184-4.282-7.57-6.753-12.609-8.15c-6.338-1.763-12.783-1.807-19.234-0.854c-5.203,0.764-10.111,2.443-14.578,5.296
				c-0.521,0.328-0.682,0.673-0.678,1.256c0.02,5.255,0.012,10.51,0.012,15.762c0,0.253,0,0.499,0,0.9
				c0.314-0.231,0.5-0.347,0.658-0.489c3.791-3.271,8.055-5.639,12.936-6.835c4.574-1.12,9.184-1.355,13.773-0.207
				c4.109,1.027,6.293,3.738,6.287,7.552c0,0.46-0.049,0.721-0.623,0.8c-4.879,0.671-9.756,1.341-14.625,2.089
				c-4.457,0.693-8.768,1.902-12.723,4.152c-3.943,2.245-6.873,5.361-8.369,9.725c-1.098,3.188-1.299,6.457-0.838,9.778
				c0.688,4.991,3.029,9.052,7.209,11.89c5.654,3.839,11.92,4.184,18.357,2.709c5.018-1.154,9.127-3.77,11.881-8.254
				c0.029-0.05,0.115-0.064,0.43-0.213c0,2.632,0,5.11,0,7.608c5.83,0,11.426,0,17.174,0c0-0.424,0.016-25.265-0.018-37.346
				C347.8,49.615,347.71,47.407,347.466,45.217z M324.747,74.567c-2.338,1.7-5.033,2.251-7.889,2.164
				c-1.758-0.053-3.393-0.447-4.781-1.555c-3.109-2.497-2.676-7.242,0.82-9.434c1.703-1.063,3.6-1.585,5.535-1.93
				c3.562-0.629,7.137-1.172,10.705-1.748c0.225-0.036,0.457-0.027,0.74-0.04C330.315,67.161,328.991,71.486,324.747,74.567z"/>
			<path fill-rule="evenodd" clip-rule="evenodd" d="M208.577,71.913c-1.82,1.174-3.689,1.875-5.742,2.078
				c-2.387,0.231-4.715,0.1-6.803-1.207c-2.27-1.427-3.039-3.756-3.078-6.21c-0.119-8.043-0.088-16.088-0.107-24.131
				c0-0.171,0.047-0.332,0.086-0.616c5.223,0,10.428,0,15.623,0c0-5.117,0-10.121,0-15.189c-5.256,0-10.447,0-15.756,0
				c0-5.917,0-11.763,0-17.87c-0.459,0.353-28.672,29.567-28.672,29.567c-1.064,1.089-1.068,2.173-0.947,3.507
				c3.754,0,7.461,0,11.295,0c0,0.475,0,0.819,0,1.163c0,8.54-0.016,17.076,0.008,25.612c0.008,3.112,0.264,6.194,1.191,9.191
				c1.395,4.524,4.055,8.043,8.246,10.312c3.314,1.79,6.91,2.418,10.637,2.502c4.564,0.103,9.027-0.367,13.277-2.185
				c0.584-0.249,0.812-0.55,0.809-1.212c-0.031-4.815-0.018-9.639-0.021-14.463C208.622,72.521,208.601,72.274,208.577,71.913z"/>
			<path fill-rule="evenodd" clip-rule="evenodd" d="M61.235,89.348H79.81c0-29.889,0-32.775,0-62.612H61.247L61.235,89.348z"/>
			<path fill-rule="evenodd" clip-rule="evenodd" d="M363.364,9.208c0,0-0.014,56.02-0.014,80.027c6.244,0,12.41,0,18.578,0
				c0-29.89,0-58.724,0-88.561C381.929,0.675,363.351,9.217,363.364,9.208z"/>
		</g>
	</g>
</g>
<g id="gris_50" display="none">
	<g display="inline">
		<g>
			<path fill-rule="evenodd" clip-rule="evenodd" fill="#939598" d="M0.001,89.272c6.254,0,12.441,0,18.734,0
				c0-11.892,0-23.738,0-35.67c9.68,0,19.254,0,28.822,0c0-5.756,0-11.42,0-17.137c-4.875,0-24.025,0-28.832,0
				c0-5.965,0-11.788,0-17.779c10.494,0,20.9,0,31.32,0c0-5.688,0-11.278,0-16.901c-16.715,0-33.375,0-50.045,0
				C0.001,30.994,0.001,60.125,0.001,89.272z"/>
			<path fill-rule="evenodd" clip-rule="evenodd" fill="#939598" d="M70.519,0C64.767,0.021,60.165,4.677,60.19,10.438
				c0.025,5.647,4.73,10.283,10.428,10.269c5.594-0.019,10.246-4.727,10.234-10.366C80.841,4.621,76.198-0.024,70.519,0z"/>
			<path fill-rule="evenodd" clip-rule="evenodd" fill="#939598" d="M155.616,46.257c-0.309-3.797-1.312-7.412-3.227-10.723
				c-2.494-4.325-6.049-7.412-10.811-9.072c-3.822-1.333-7.736-1.625-11.74-1.224c-4.98,0.495-9.266,2.435-12.748,6.057
				c-0.914,0.95-1.719,2.005-2.699,3.162c0-2.676,0-5.198,0-7.742c-6.203,0-12.289,0-18.373,0c0,20.841,0,41.642,0,62.433
				c6.143,0,12.205,0,18.375,0c0-0.416,0-0.783,0-1.15c0-10.397-0.008-20.788,0.016-31.188c0.004-1.443,0.078-2.912,0.287-4.332
				c0.945-6.514,5.621-10.91,12.375-10.468c4.221,0.282,7.697,2.036,9.457,6.911c0.781,2.172,0.912,4.428,0.914,6.691
				c0.014,10.796,0.008,21.601,0.008,32.404c0,0.361,0,0.733,0,1.121c6.205,0,12.281,0,18.461,0c0-0.428,0-0.795,0-1.171
				c0-11.757,0.012-23.52-0.014-35.28C155.892,50.541,155.792,48.396,155.616,46.257z"/>
			<path fill-rule="evenodd" clip-rule="evenodd" fill="#939598" d="M260.515,58.938c-0.004,1.588-0.092,3.2-0.354,4.764
				c-0.889,5.291-4.232,9.556-10.076,10.122c-5.086,0.488-9.172-1.726-11.062-6.285c-0.867-2.091-1.145-4.302-1.145-6.545
				c0-11.099,0-33.954,0-34.313c-6.195,0-12.264,0-18.463,0c0,0.355-0.016,26.132,0.002,38.734c0.01,5.073,0.809,9.987,3.262,14.516
				c2.383,4.396,5.848,7.577,10.57,9.347c4.029,1.508,8.186,1.811,12.414,1.297c5.086-0.618,9.389-2.819,12.803-6.678
				c0.678-0.772,1.293-1.602,2.088-2.602c0,2.767,0,5.317,0,7.836c6.215,0,12.297,0,18.393,0c0-20.846,0-41.619,0-62.399
				c-6.162,0-12.271,0-18.418,0C260.528,27.145,260.544,48.569,260.515,58.938z"/>
			<path fill-rule="evenodd" clip-rule="evenodd" fill="#939598" d="M347.466,45.217c-0.434-3.859-1.752-7.431-4.084-10.567
				c-3.184-4.282-7.57-6.753-12.609-8.15c-6.338-1.763-12.783-1.807-19.234-0.854c-5.203,0.764-10.111,2.443-14.578,5.296
				c-0.521,0.328-0.682,0.673-0.678,1.256c0.02,5.255,0.012,10.51,0.012,15.762c0,0.253,0,0.499,0,0.9
				c0.314-0.231,0.5-0.347,0.658-0.489c3.791-3.271,8.055-5.639,12.936-6.835c4.574-1.12,9.184-1.355,13.773-0.207
				c4.109,1.027,6.293,3.738,6.287,7.552c0,0.46-0.049,0.721-0.623,0.8c-4.879,0.671-9.756,1.341-14.625,2.089
				c-4.457,0.693-8.768,1.902-12.723,4.152c-3.943,2.245-6.873,5.361-8.369,9.725c-1.098,3.188-1.299,6.457-0.838,9.778
				c0.688,4.991,3.029,9.052,7.209,11.89c5.654,3.839,11.92,4.184,18.357,2.709c5.018-1.154,9.127-3.77,11.881-8.254
				c0.029-0.05,0.115-0.064,0.43-0.213c0,2.632,0,5.11,0,7.608c5.83,0,11.426,0,17.174,0c0-0.424,0.016-25.265-0.018-37.346
				C347.8,49.615,347.71,47.407,347.466,45.217z M324.747,74.567c-2.338,1.7-5.033,2.251-7.889,2.164
				c-1.758-0.053-3.393-0.447-4.781-1.555c-3.109-2.497-2.676-7.242,0.82-9.434c1.703-1.063,3.6-1.585,5.535-1.93
				c3.562-0.629,7.137-1.172,10.705-1.748c0.225-0.036,0.457-0.027,0.74-0.04C330.315,67.161,328.991,71.486,324.747,74.567z"/>
			<path fill-rule="evenodd" clip-rule="evenodd" fill="#939598" d="M208.577,71.913c-1.82,1.174-3.689,1.875-5.742,2.078
				c-2.387,0.231-4.715,0.1-6.803-1.207c-2.27-1.427-3.039-3.756-3.078-6.21c-0.119-8.043-0.088-16.088-0.107-24.131
				c0-0.171,0.047-0.332,0.086-0.616c5.223,0,10.428,0,15.623,0c0-5.117,0-10.121,0-15.189c-5.256,0-10.447,0-15.756,0
				c0-5.917,0-11.763,0-17.87c-0.459,0.353-28.672,29.567-28.672,29.567c-1.064,1.089-1.068,2.173-0.947,3.507
				c3.754,0,7.461,0,11.295,0c0,0.475,0,0.819,0,1.163c0,8.54-0.016,17.076,0.008,25.612c0.008,3.112,0.264,6.194,1.191,9.191
				c1.395,4.524,4.055,8.043,8.246,10.312c3.314,1.79,6.91,2.418,10.637,2.502c4.564,0.103,9.027-0.367,13.277-2.185
				c0.584-0.249,0.812-0.55,0.809-1.212c-0.031-4.815-0.018-9.639-0.021-14.463C208.622,72.521,208.601,72.274,208.577,71.913z"/>
			<path fill-rule="evenodd" clip-rule="evenodd" fill="#939598" d="M61.235,89.348H79.81c0-29.889,0-32.775,0-62.612H61.247
				L61.235,89.348z"/>
			<path fill-rule="evenodd" clip-rule="evenodd" fill="#939598" d="M363.364,9.208c0,0-0.014,56.02-0.014,80.027
				c6.244,0,12.41,0,18.578,0c0-29.89,0-58.724,0-88.561C381.929,0.675,363.351,9.217,363.364,9.208z"/>
		</g>
	</g>
</g>
<g id="gris_10" display="none">
	<g display="inline">
		<g>
			<path fill-rule="evenodd" clip-rule="evenodd" fill="#E6E7E8" d="M0.001,89.272c6.254,0,12.441,0,18.734,0
				c0-11.892,0-23.738,0-35.67c9.68,0,19.254,0,28.822,0c0-5.756,0-11.42,0-17.137c-4.875,0-24.025,0-28.832,0
				c0-5.965,0-11.788,0-17.779c10.494,0,20.9,0,31.32,0c0-5.688,0-11.278,0-16.901c-16.715,0-33.375,0-50.045,0
				C0.001,30.994,0.001,60.125,0.001,89.272z"/>
			<path fill-rule="evenodd" clip-rule="evenodd" fill="#E6E7E8" d="M70.519,0C64.767,0.021,60.165,4.677,60.19,10.438
				c0.025,5.647,4.73,10.283,10.428,10.269c5.594-0.019,10.246-4.727,10.234-10.366C80.841,4.621,76.198-0.024,70.519,0z"/>
			<path fill-rule="evenodd" clip-rule="evenodd" fill="#E6E7E8" d="M155.616,46.257c-0.309-3.797-1.312-7.412-3.227-10.723
				c-2.494-4.325-6.049-7.412-10.811-9.072c-3.822-1.333-7.736-1.625-11.74-1.224c-4.98,0.495-9.266,2.435-12.748,6.057
				c-0.914,0.95-1.719,2.005-2.699,3.162c0-2.676,0-5.198,0-7.742c-6.203,0-12.289,0-18.373,0c0,20.841,0,41.642,0,62.433
				c6.143,0,12.205,0,18.375,0c0-0.416,0-0.783,0-1.15c0-10.397-0.008-20.788,0.016-31.188c0.004-1.443,0.078-2.912,0.287-4.332
				c0.945-6.514,5.621-10.91,12.375-10.468c4.221,0.282,7.697,2.036,9.457,6.911c0.781,2.172,0.912,4.428,0.914,6.691
				c0.014,10.796,0.008,21.601,0.008,32.404c0,0.361,0,0.733,0,1.121c6.205,0,12.281,0,18.461,0c0-0.428,0-0.795,0-1.171
				c0-11.757,0.012-23.52-0.014-35.28C155.892,50.541,155.792,48.396,155.616,46.257z"/>
			<path fill-rule="evenodd" clip-rule="evenodd" fill="#E6E7E8" d="M260.515,58.938c-0.004,1.588-0.092,3.2-0.354,4.764
				c-0.889,5.291-4.232,9.556-10.076,10.122c-5.086,0.488-9.172-1.726-11.062-6.285c-0.867-2.091-1.145-4.302-1.145-6.545
				c0-11.099,0-33.954,0-34.313c-6.195,0-12.264,0-18.463,0c0,0.355-0.016,26.132,0.002,38.734c0.01,5.073,0.809,9.987,3.262,14.516
				c2.383,4.396,5.848,7.577,10.57,9.347c4.029,1.508,8.186,1.811,12.414,1.297c5.086-0.618,9.389-2.819,12.803-6.678
				c0.678-0.772,1.293-1.602,2.088-2.602c0,2.767,0,5.317,0,7.836c6.215,0,12.297,0,18.393,0c0-20.846,0-41.619,0-62.399
				c-6.162,0-12.271,0-18.418,0C260.528,27.145,260.544,48.569,260.515,58.938z"/>
			<path fill-rule="evenodd" clip-rule="evenodd" fill="#E6E7E8" d="M347.466,45.217c-0.434-3.859-1.752-7.431-4.084-10.567
				c-3.184-4.282-7.57-6.753-12.609-8.15c-6.338-1.763-12.783-1.807-19.234-0.854c-5.203,0.764-10.111,2.443-14.578,5.296
				c-0.521,0.328-0.682,0.673-0.678,1.256c0.02,5.255,0.012,10.51,0.012,15.762c0,0.253,0,0.499,0,0.9
				c0.314-0.231,0.5-0.347,0.658-0.489c3.791-3.271,8.055-5.639,12.936-6.835c4.574-1.12,9.184-1.355,13.773-0.207
				c4.109,1.027,6.293,3.738,6.287,7.552c0,0.46-0.049,0.721-0.623,0.8c-4.879,0.671-9.756,1.341-14.625,2.089
				c-4.457,0.693-8.768,1.902-12.723,4.152c-3.943,2.245-6.873,5.361-8.369,9.725c-1.098,3.188-1.299,6.457-0.838,9.778
				c0.688,4.991,3.029,9.052,7.209,11.89c5.654,3.839,11.92,4.184,18.357,2.709c5.018-1.154,9.127-3.77,11.881-8.254
				c0.029-0.05,0.115-0.064,0.43-0.213c0,2.632,0,5.11,0,7.608c5.83,0,11.426,0,17.174,0c0-0.424,0.016-25.265-0.018-37.346
				C347.8,49.615,347.71,47.407,347.466,45.217z M324.747,74.567c-2.338,1.7-5.033,2.251-7.889,2.164
				c-1.758-0.053-3.393-0.447-4.781-1.555c-3.109-2.497-2.676-7.242,0.82-9.434c1.703-1.063,3.6-1.585,5.535-1.93
				c3.562-0.629,7.137-1.172,10.705-1.748c0.225-0.036,0.457-0.027,0.74-0.04C330.315,67.161,328.991,71.486,324.747,74.567z"/>
			<path fill-rule="evenodd" clip-rule="evenodd" fill="#E6E7E8" d="M208.577,71.913c-1.82,1.174-3.689,1.875-5.742,2.078
				c-2.387,0.231-4.715,0.1-6.803-1.207c-2.27-1.427-3.039-3.756-3.078-6.21c-0.119-8.043-0.088-16.088-0.107-24.131
				c0-0.171,0.047-0.332,0.086-0.616c5.223,0,10.428,0,15.623,0c0-5.117,0-10.121,0-15.189c-5.256,0-10.447,0-15.756,0
				c0-5.917,0-11.763,0-17.87c-0.459,0.353-28.672,29.567-28.672,29.567c-1.064,1.089-1.068,2.173-0.947,3.507
				c3.754,0,7.461,0,11.295,0c0,0.475,0,0.819,0,1.163c0,8.54-0.016,17.076,0.008,25.612c0.008,3.112,0.264,6.194,1.191,9.191
				c1.395,4.524,4.055,8.043,8.246,10.312c3.314,1.79,6.91,2.418,10.637,2.502c4.564,0.103,9.027-0.367,13.277-2.185
				c0.584-0.249,0.812-0.55,0.809-1.212c-0.031-4.815-0.018-9.639-0.021-14.463C208.622,72.521,208.601,72.274,208.577,71.913z"/>
			<path fill-rule="evenodd" clip-rule="evenodd" fill="#E6E7E8" d="M61.235,89.348H79.81c0-29.889,0-32.775,0-62.612H61.247
				L61.235,89.348z"/>
			<path fill-rule="evenodd" clip-rule="evenodd" fill="#E6E7E8" d="M363.364,9.208c0,0-0.014,56.02-0.014,80.027
				c6.244,0,12.41,0,18.578,0c0-29.89,0-58.724,0-88.561C381.929,0.675,363.351,9.217,363.364,9.208z"/>
		</g>
	</g>
</g>
<g id="celeste" display="none">
	<g display="inline">
		<g>
			<path fill-rule="evenodd" clip-rule="evenodd" fill="#1AAAE2" d="M0.001,89.272c6.254,0,12.441,0,18.734,0
				c0-11.892,0-23.738,0-35.67c9.68,0,19.254,0,28.822,0c0-5.756,0-11.42,0-17.137c-4.875,0-24.025,0-28.832,0
				c0-5.965,0-11.788,0-17.779c10.494,0,20.9,0,31.32,0c0-5.688,0-11.278,0-16.901c-16.715,0-33.375,0-50.045,0
				C0.001,30.994,0.001,60.125,0.001,89.272z"/>
			<path fill-rule="evenodd" clip-rule="evenodd" fill="#1AAAE2" d="M70.519,0C64.767,0.021,60.165,4.677,60.19,10.438
				c0.025,5.647,4.73,10.283,10.428,10.269c5.594-0.019,10.246-4.727,10.234-10.366C80.841,4.621,76.198-0.024,70.519,0z"/>
			<path fill-rule="evenodd" clip-rule="evenodd" fill="#1AAAE2" d="M155.616,46.257c-0.309-3.797-1.312-7.412-3.227-10.723
				c-2.494-4.325-6.049-7.412-10.811-9.072c-3.822-1.333-7.736-1.625-11.74-1.224c-4.98,0.495-9.266,2.435-12.748,6.057
				c-0.914,0.95-1.719,2.005-2.699,3.162c0-2.676,0-5.198,0-7.742c-6.203,0-12.289,0-18.373,0c0,20.841,0,41.642,0,62.433
				c6.143,0,12.205,0,18.375,0c0-0.416,0-0.783,0-1.15c0-10.397-0.008-20.788,0.016-31.188c0.004-1.443,0.078-2.912,0.287-4.332
				c0.945-6.514,5.621-10.91,12.375-10.468c4.221,0.282,7.697,2.036,9.457,6.911c0.781,2.172,0.912,4.428,0.914,6.691
				c0.014,10.796,0.008,21.601,0.008,32.404c0,0.361,0,0.733,0,1.121c6.205,0,12.281,0,18.461,0c0-0.428,0-0.795,0-1.171
				c0-11.757,0.012-23.52-0.014-35.28C155.892,50.541,155.792,48.396,155.616,46.257z"/>
			<path fill-rule="evenodd" clip-rule="evenodd" fill="#1AAAE2" d="M260.515,58.938c-0.004,1.588-0.092,3.2-0.354,4.764
				c-0.889,5.291-4.232,9.556-10.076,10.122c-5.086,0.488-9.172-1.726-11.062-6.285c-0.867-2.091-1.145-4.302-1.145-6.545
				c0-11.099,0-33.954,0-34.313c-6.195,0-12.264,0-18.463,0c0,0.355-0.016,26.132,0.002,38.734c0.01,5.073,0.809,9.987,3.262,14.516
				c2.383,4.396,5.848,7.577,10.57,9.347c4.029,1.508,8.186,1.811,12.414,1.297c5.086-0.618,9.389-2.819,12.803-6.678
				c0.678-0.772,1.293-1.602,2.088-2.602c0,2.767,0,5.317,0,7.836c6.215,0,12.297,0,18.393,0c0-20.846,0-41.619,0-62.399
				c-6.162,0-12.271,0-18.418,0C260.528,27.145,260.544,48.569,260.515,58.938z"/>
			<path fill-rule="evenodd" clip-rule="evenodd" fill="#1AAAE2" d="M347.466,45.217c-0.434-3.859-1.752-7.431-4.084-10.567
				c-3.184-4.282-7.57-6.753-12.609-8.15c-6.338-1.763-12.783-1.807-19.234-0.854c-5.203,0.764-10.111,2.443-14.578,5.296
				c-0.521,0.328-0.682,0.673-0.678,1.256c0.02,5.255,0.012,10.51,0.012,15.762c0,0.253,0,0.499,0,0.9
				c0.314-0.231,0.5-0.347,0.658-0.489c3.791-3.271,8.055-5.639,12.936-6.835c4.574-1.12,9.184-1.355,13.773-0.207
				c4.109,1.027,6.293,3.738,6.287,7.552c0,0.46-0.049,0.721-0.623,0.8c-4.879,0.671-9.756,1.341-14.625,2.089
				c-4.457,0.693-8.768,1.902-12.723,4.152c-3.943,2.245-6.873,5.361-8.369,9.725c-1.098,3.188-1.299,6.457-0.838,9.778
				c0.688,4.991,3.029,9.052,7.209,11.89c5.654,3.839,11.92,4.184,18.357,2.709c5.018-1.154,9.127-3.77,11.881-8.254
				c0.029-0.05,0.115-0.064,0.43-0.213c0,2.632,0,5.11,0,7.608c5.83,0,11.426,0,17.174,0c0-0.424,0.016-25.265-0.018-37.346
				C347.8,49.615,347.71,47.407,347.466,45.217z M324.747,74.567c-2.338,1.7-5.033,2.251-7.889,2.164
				c-1.758-0.053-3.393-0.447-4.781-1.555c-3.109-2.497-2.676-7.242,0.82-9.434c1.703-1.063,3.6-1.585,5.535-1.93
				c3.562-0.629,7.137-1.172,10.705-1.748c0.225-0.036,0.457-0.027,0.74-0.04C330.315,67.161,328.991,71.486,324.747,74.567z"/>
			<path fill-rule="evenodd" clip-rule="evenodd" fill="#1AAAE2" d="M208.577,71.913c-1.82,1.174-3.689,1.875-5.742,2.078
				c-2.387,0.231-4.715,0.1-6.803-1.207c-2.27-1.427-3.039-3.756-3.078-6.21c-0.119-8.043-0.088-16.088-0.107-24.131
				c0-0.171,0.047-0.332,0.086-0.616c5.223,0,10.428,0,15.623,0c0-5.117,0-10.121,0-15.189c-5.256,0-10.447,0-15.756,0
				c0-5.917,0-11.763,0-17.87c-0.459,0.353-28.672,29.567-28.672,29.567c-1.064,1.089-1.068,2.173-0.947,3.507
				c3.754,0,7.461,0,11.295,0c0,0.475,0,0.819,0,1.163c0,8.54-0.016,17.076,0.008,25.612c0.008,3.112,0.264,6.194,1.191,9.191
				c1.395,4.524,4.055,8.043,8.246,10.312c3.314,1.79,6.91,2.418,10.637,2.502c4.564,0.103,9.027-0.367,13.277-2.185
				c0.584-0.249,0.812-0.55,0.809-1.212c-0.031-4.815-0.018-9.639-0.021-14.463C208.622,72.521,208.601,72.274,208.577,71.913z"/>
			<path fill-rule="evenodd" clip-rule="evenodd" fill="#1AAAE2" d="M61.235,89.348H79.81c0-29.889,0-32.775,0-62.612H61.247
				L61.235,89.348z"/>
			<path fill-rule="evenodd" clip-rule="evenodd" fill="#1AAAE2" d="M363.364,9.208c0,0-0.014,56.02-0.014,80.027
				c6.244,0,12.41,0,18.578,0c0-29.89,0-58.724,0-88.561C381.929,0.675,363.351,9.217,363.364,9.208z"/>
		</g>
	</g>
</g>
<g id="blanco" display="none">
	<g display="inline">
		<g>
			<path fill-rule="evenodd" clip-rule="evenodd" fill="#FFFFFF" d="M0.001,89.272c6.254,0,12.441,0,18.734,0
				c0-11.892,0-23.738,0-35.67c9.68,0,19.254,0,28.822,0c0-5.756,0-11.42,0-17.137c-4.875,0-24.025,0-28.832,0
				c0-5.965,0-11.788,0-17.779c10.494,0,20.9,0,31.32,0c0-5.688,0-11.278,0-16.901c-16.715,0-33.375,0-50.045,0
				C0.001,30.994,0.001,60.125,0.001,89.272z"/>
			<path fill-rule="evenodd" clip-rule="evenodd" fill="#FFFFFF" d="M70.519,0C64.767,0.021,60.165,4.677,60.19,10.438
				c0.025,5.647,4.73,10.283,10.428,10.269c5.594-0.019,10.246-4.727,10.234-10.366C80.841,4.621,76.198-0.024,70.519,0z"/>
			<path fill-rule="evenodd" clip-rule="evenodd" fill="#FFFFFF" d="M155.616,46.257c-0.309-3.797-1.312-7.412-3.227-10.723
				c-2.494-4.325-6.049-7.412-10.811-9.072c-3.822-1.333-7.736-1.625-11.74-1.224c-4.98,0.495-9.266,2.435-12.748,6.057
				c-0.914,0.95-1.719,2.005-2.699,3.162c0-2.676,0-5.198,0-7.742c-6.203,0-12.289,0-18.373,0c0,20.841,0,41.642,0,62.433
				c6.143,0,12.205,0,18.375,0c0-0.416,0-0.783,0-1.15c0-10.397-0.008-20.788,0.016-31.188c0.004-1.443,0.078-2.912,0.287-4.332
				c0.945-6.514,5.621-10.91,12.375-10.468c4.221,0.282,7.697,2.036,9.457,6.911c0.781,2.172,0.912,4.428,0.914,6.691
				c0.014,10.796,0.008,21.601,0.008,32.404c0,0.361,0,0.733,0,1.121c6.205,0,12.281,0,18.461,0c0-0.428,0-0.795,0-1.171
				c0-11.757,0.012-23.52-0.014-35.28C155.892,50.541,155.792,48.396,155.616,46.257z"/>
			<path fill-rule="evenodd" clip-rule="evenodd" fill="#FFFFFF" d="M260.515,58.938c-0.004,1.588-0.092,3.2-0.354,4.764
				c-0.889,5.291-4.232,9.556-10.076,10.122c-5.086,0.488-9.172-1.726-11.062-6.285c-0.867-2.091-1.145-4.302-1.145-6.545
				c0-11.099,0-33.954,0-34.313c-6.195,0-12.264,0-18.463,0c0,0.355-0.016,26.132,0.002,38.734c0.01,5.073,0.809,9.987,3.262,14.516
				c2.383,4.396,5.848,7.577,10.57,9.347c4.029,1.508,8.186,1.811,12.414,1.297c5.086-0.618,9.389-2.819,12.803-6.678
				c0.678-0.772,1.293-1.602,2.088-2.602c0,2.767,0,5.317,0,7.836c6.215,0,12.297,0,18.393,0c0-20.846,0-41.619,0-62.399
				c-6.162,0-12.271,0-18.418,0C260.528,27.145,260.544,48.569,260.515,58.938z"/>
			<path fill-rule="evenodd" clip-rule="evenodd" fill="#FFFFFF" d="M347.466,45.217c-0.434-3.859-1.752-7.431-4.084-10.567
				c-3.184-4.282-7.57-6.753-12.609-8.15c-6.338-1.763-12.783-1.807-19.234-0.854c-5.203,0.764-10.111,2.443-14.578,5.296
				c-0.521,0.328-0.682,0.673-0.678,1.256c0.02,5.255,0.012,10.51,0.012,15.762c0,0.253,0,0.499,0,0.9
				c0.314-0.231,0.5-0.347,0.658-0.489c3.791-3.271,8.055-5.639,12.936-6.835c4.574-1.12,9.184-1.355,13.773-0.207
				c4.109,1.027,6.293,3.738,6.287,7.552c0,0.46-0.049,0.721-0.623,0.8c-4.879,0.671-9.756,1.341-14.625,2.089
				c-4.457,0.693-8.768,1.902-12.723,4.152c-3.943,2.245-6.873,5.361-8.369,9.725c-1.098,3.188-1.299,6.457-0.838,9.778
				c0.688,4.991,3.029,9.052,7.209,11.89c5.654,3.839,11.92,4.184,18.357,2.709c5.018-1.154,9.127-3.77,11.881-8.254
				c0.029-0.05,0.115-0.064,0.43-0.213c0,2.632,0,5.11,0,7.608c5.83,0,11.426,0,17.174,0c0-0.424,0.016-25.265-0.018-37.346
				C347.8,49.615,347.71,47.407,347.466,45.217z M324.747,74.567c-2.338,1.7-5.033,2.251-7.889,2.164
				c-1.758-0.053-3.393-0.447-4.781-1.555c-3.109-2.497-2.676-7.242,0.82-9.434c1.703-1.063,3.6-1.585,5.535-1.93
				c3.562-0.629,7.137-1.172,10.705-1.748c0.225-0.036,0.457-0.027,0.74-0.04C330.315,67.161,328.991,71.486,324.747,74.567z"/>
			<path fill-rule="evenodd" clip-rule="evenodd" fill="#FFFFFF" d="M208.577,71.913c-1.82,1.174-3.689,1.875-5.742,2.078
				c-2.387,0.231-4.715,0.1-6.803-1.207c-2.27-1.427-3.039-3.756-3.078-6.21c-0.119-8.043-0.088-16.088-0.107-24.131
				c0-0.171,0.047-0.332,0.086-0.616c5.223,0,10.428,0,15.623,0c0-5.117,0-10.121,0-15.189c-5.256,0-10.447,0-15.756,0
				c0-5.917,0-11.763,0-17.87c-0.459,0.353-28.672,29.567-28.672,29.567c-1.064,1.089-1.068,2.173-0.947,3.507
				c3.754,0,7.461,0,11.295,0c0,0.475,0,0.819,0,1.163c0,8.54-0.016,17.076,0.008,25.612c0.008,3.112,0.264,6.194,1.191,9.191
				c1.395,4.524,4.055,8.043,8.246,10.312c3.314,1.79,6.91,2.418,10.637,2.502c4.564,0.103,9.027-0.367,13.277-2.185
				c0.584-0.249,0.812-0.55,0.809-1.212c-0.031-4.815-0.018-9.639-0.021-14.463C208.622,72.521,208.601,72.274,208.577,71.913z"/>
			<path fill-rule="evenodd" clip-rule="evenodd" fill="#FFFFFF" d="M61.235,89.348H79.81c0-29.889,0-32.775,0-62.612H61.247
				L61.235,89.348z"/>
			<path fill-rule="evenodd" clip-rule="evenodd" fill="#FFFFFF" d="M363.364,9.208c0,0-0.014,56.02-0.014,80.027
				c6.244,0,12.41,0,18.578,0c0-29.89,0-58.724,0-88.561C381.929,0.675,363.351,9.217,363.364,9.208z"/>
		</g>
	</g>
</g>
</svg>
